<svg xmlns="http://www.w3.org/2000/svg" xmlns:xlink="http://www.w3.org/1999/xlink" fill="none" version="1.1" width="19" height="23" viewBox="0 0 19 23">
  <defs>
    <linearGradient x1="0.5" y1="0" x2="0.5" y2="1" id="master_svg0_21_4391">
      <stop offset="0%" stop-color="#E19232" stop-opacity="1"/>
      <stop offset="100%" stop-color="#F2BC3F" stop-opacity="1"/>
    </linearGradient>
    <linearGradient x1="0.5" y1="0" x2="0.5" y2="1" id="master_svg1_21_4391">
      <stop offset="0%" stop-color="#E19232" stop-opacity="1"/>
      <stop offset="100%" stop-color="#F2BC3F" stop-opacity="1"/>
    </linearGradient>
  </defs>
  <g style="mix-blend-mode:passthrough">
    <g>
      <path d="M5.34375,3.33024e-8C5.67167,3.33024e-8,5.9375,0.264037,5.9375,0.589744L5.9375,2.89918C3.72536,3.59185,1.76549,4.91203,0.299252,6.69713C0.106016,6.48098,-0.000487649,6.20183,0.00000158548,5.91277L0.00000158548,1.17949C0.00000158548,0.528074,0.531663,3.33024e-8,1.1875,3.33024e-8L5.34375,3.33024e-8ZM17.8125,3.33024e-8C18.4145,0.0000786949,18.9213,0.447624,18.9917,1.04149L19,1.17949L19,5.91277C19.0001,6.2014,18.8936,6.48005,18.7008,6.69595C17.2345,4.91113,15.2746,3.59134,13.0625,2.89918L13.0625,0.589744C13.0624,0.304906,13.2673,0.0607055,13.5494,0.00943592L13.6563,3.33024e-8L17.8125,3.33024e-8ZM11.2813,3.33024e-8C11.568,-0.0000950447,11.8139,0.203405,11.8655,0.48359L11.875,0.589744L11.8762,2.59487C10.3085,2.27846,8.69271,2.27846,7.125,2.59487L7.125,0.589744C7.12491,0.304906,7.32979,0.0607066,7.61188,0.00943592L7.71875,3.33024e-8L11.2813,3.33024e-8Z" fill="#E8C115" fill-opacity="1"/>
    </g>
    <g>
      <path d="M19,13.5638296875Q19,13.7954696875,18.9886,14.0268296875Q18.9771,14.2582296875,18.9543,14.4887296875Q18.9314,14.7192296875,18.8972,14.9483296875Q18.863,15.1775296875,18.8175,15.4046296875Q18.772,15.6318296875,18.7153,15.8565296875Q18.6586,16.0812296875,18.5909,16.3029296875Q18.5232,16.5246296875,18.4447,16.742729687500002Q18.3661,16.960829687500002,18.2769,17.1748296875Q18.1876,17.3888296875,18.0879,17.5982296875Q17.9882,17.8076296875,17.8782,18.0118296875Q17.7683,18.2161296875,17.6484,18.4148296875Q17.5285,18.613529687499998,17.399,18.8061296875Q17.2694,18.9987296875,17.1305,19.1848296875Q16.9915,19.3708296875,16.8436,19.5499296875Q16.6956,19.7289296875,16.539,19.9006296875Q16.3824,20.0722296875,16.2175,20.2360296875Q16.0526,20.3998296875,15.8798,20.5553296875Q15.707,20.7109296875,15.5267,20.8578296875Q15.3465,21.0048296875,15.1591,21.1428296875Q14.9718,21.2808296875,14.7779,21.4095296875Q14.584,21.5381296875,14.384,21.6572296875Q14.1839,21.7763296875,13.9783,21.8855296875Q13.7726,21.9947296875,13.5618,22.0937296875Q13.3509,22.1928296875,13.1355,22.2814296875Q12.92,22.3701296875,12.7005,22.4481296875Q12.4809,22.5261296875,12.2577,22.5934296875Q12.0345,22.6606296875,11.8083,22.7169296875Q11.5821,22.7732296875,11.3534,22.8184296875Q11.1246,22.8636296875,10.8939,22.8976296875Q10.6633,22.9316296875,10.4312,22.9543296875Q10.1991,22.9770296875,9.96614,22.9883296875Q9.73321,22.9997296875,9.5,22.9997296875Q9.26679,22.9997296875,9.03386,22.9883296875Q8.80093,22.9770296875,8.56884,22.9543296875Q8.33675,22.9316296875,8.10606,22.8976296875Q7.87537,22.8636296875,7.64664,22.8184296875Q7.41791,22.7732296875,7.19169,22.7169296875Q6.96547,22.6606296875,6.7423,22.5934296875Q6.51913,22.5261296875,6.29955,22.4481296875Q6.07997,22.3701296875,5.86451,22.2814296875Q5.64905,22.1928296875,5.43823,22.0937296875Q5.22741,21.9947296875,5.02173,21.8855296875Q4.81606,21.7763296875,4.61602,21.6572296875Q4.41599,21.5381296875,4.22208,21.4095296875Q4.02817,21.2808296875,3.84086,21.1428296875Q3.65354,21.0048296875,3.47326,20.8578296875Q3.29299,20.7109296875,3.12019,20.5553296875Q2.94739,20.3998296875,2.78249,20.2360296875Q2.61758,20.0722296875,2.46096,19.9006296875Q2.30435,19.7289296875,2.1564,19.5499296875Q2.00845,19.3708296875,1.86953,19.1848296875Q1.7306,18.9987296875,1.60104,18.8061296875Q1.47147,18.613529687499998,1.35158,18.4148296875Q1.23168,18.2161296875,1.12175,18.0118296875Q1.01181,17.8076296875,0.912102,17.5982296875Q0.812391,17.3888296875,0.723144,17.1748296875Q0.633898,16.960829687500002,0.555331,16.742729687500002Q0.476765,16.5246296875,0.409067,16.3029296875Q0.341369,16.0812296875,0.284703,15.8565296875Q0.228037,15.6318296875,0.18254,15.4046296875Q0.137042,15.1775296875,0.102823,14.9483296875Q0.0686039,14.7192296875,0.0457451,14.4887296875Q0.0228863,14.2582296875,0.0114432,14.0268296875Q0,13.7954696875,0,13.5638296875Q0,13.3321896875,0.0114432,13.1008296875Q0.0228863,12.8694696875,0.0457451,12.6389496875Q0.0686039,12.4084196875,0.102823,12.1792896875Q0.137042,11.950159687500001,0.18254,11.722969687500001Q0.228037,11.4957896875,0.284703,11.2710896875Q0.341369,11.0463896875,0.409067,10.8247296875Q0.476765,10.6030696875,0.555331,10.3849696875Q0.633898,10.1668696875,0.723144,9.9528596875Q0.812391,9.7388596875,0.912102,9.529459687500001Q1.01181,9.320059687499999,1.12175,9.1157796875Q1.23168,8.9114896875,1.35158,8.7128096875Q1.47147,8.5141196875,1.60104,8.3215196875Q1.7306,8.1289196875,1.86953,7.9428696875Q2.00845,7.7568196875,2.1564,7.5777596875Q2.30435,7.398699687500001,2.46096,7.2270696875Q2.61758,7.0554296875,2.78249,6.8916396875Q2.94739,6.7278496875,3.12019,6.5722896875Q3.29299,6.4167296875,3.47326,6.2697796875Q3.65354,6.1228296874999995,3.84086,5.9848396875Q4.02817,5.8468596875,4.22208,5.7181696875Q4.41599,5.5894696875,4.61602,5.4703896875Q4.81606,5.3512996875,5.02173,5.2421096875Q5.22741,5.1329196875,5.43823,5.0338766875Q5.64905,4.9348386875,5.86451,4.8461946875Q6.07997,4.7575506875,6.29955,4.6795136875Q6.51913,4.6014776875,6.7423,4.5342366875Q6.96547,4.4669946875,7.19169,4.4107116875Q7.41791,4.3544276875,7.64664,4.3092376875Q7.87537,4.2640476875,8.10606,4.2300586875Q8.33675,4.1960705875,8.56884,4.1733660875Q8.80093,4.1506615875,9.03386,4.1392956875Q9.26679,4.1279296875,9.5,4.1279296875Q9.73321,4.1279296875,9.96614,4.1392956875Q10.1991,4.1506615875,10.4312,4.1733660875Q10.6633,4.1960705875,10.8939,4.2300586875Q11.1246,4.2640476875,11.3534,4.3092376875Q11.5821,4.3544276875,11.8083,4.4107116875Q12.0345,4.4669946875,12.2577,4.5342366875Q12.4809,4.6014776875,12.7005,4.6795136875Q12.92,4.7575506875,13.1355,4.8461946875Q13.3509,4.9348386875,13.5618,5.0338766875Q13.7726,5.1329196875,13.9783,5.2421096875Q14.1839,5.3512996875,14.384,5.4703896875Q14.584,5.5894696875,14.7779,5.7181696875Q14.9718,5.8468596875,15.1591,5.9848396875Q15.3465,6.1228296874999995,15.5267,6.2697796875Q15.707,6.4167296875,15.8798,6.5722896875Q16.0526,6.7278496875,16.2175,6.8916396875Q16.3824,7.0554296875,16.539,7.2270696875Q16.6956,7.398699687500001,16.8436,7.5777596875Q16.9915,7.7568196875,17.1305,7.9428696875Q17.2694,8.1289196875,17.399,8.3215196875Q17.5285,8.5141196875,17.6484,8.7128096875Q17.7683,8.9114896875,17.8783,9.1157796875Q17.9882,9.320059687499999,18.0879,9.529459687500001Q18.1876,9.7388596875,18.2769,9.9528596875Q18.3661,10.1668696875,18.4447,10.3849696875Q18.5232,10.6030696875,18.5909,10.8247296875Q18.6586,11.0463896875,18.7153,11.2710896875Q18.772,11.4957896875,18.8175,11.722969687500001Q18.863,11.950159687500001,18.8972,12.1792896875Q18.9314,12.4084196875,18.9543,12.6389496875Q18.9771,12.8694696875,18.9886,13.1008296875Q19,13.3321896875,19,13.5638296875Z" fill="#FFD000" fill-opacity="1"/>
    </g>
    <g>
      <path d="M9.500046874999999,7.328125L11.345426875000001,11.041155L15.470796875,11.636795L12.485426875,14.526534999999999L13.190796875,18.608725L9.500046874999999,16.682634999999998L5.809296874999999,18.608725L6.514666875,14.527715L3.529296875,11.637975L7.654676875,11.041155L9.500046874999999,7.328125Z" fill="#FFFFFF" fill-opacity="1"/>
    </g>
    <g>
      <path d="M5.34375,3.33024e-8C5.67167,3.33024e-8,5.9375,0.264037,5.9375,0.589744L5.9375,2.89918C3.72536,3.59185,1.76549,4.91203,0.299252,6.69713C0.106016,6.48098,-0.000487649,6.20183,0.00000158548,5.91277L0.00000158548,1.17949C0.00000158548,0.528074,0.531663,3.33024e-8,1.1875,3.33024e-8L5.34375,3.33024e-8ZM17.8125,3.33024e-8C18.4145,0.0000786949,18.9213,0.447624,18.9917,1.04149L19,1.17949L19,5.91277C19.0001,6.2014,18.8936,6.48005,18.7008,6.69595C17.2345,4.91113,15.2746,3.59134,13.0625,2.89918L13.0625,0.589744C13.0624,0.304906,13.2673,0.0607055,13.5494,0.00943592L13.6563,3.33024e-8L17.8125,3.33024e-8ZM11.2813,3.33024e-8C11.568,-0.0000950447,11.8139,0.203405,11.8655,0.48359L11.875,0.589744L11.8762,2.59487C10.3085,2.27846,8.69271,2.27846,7.125,2.59487L7.125,0.589744C7.12491,0.304906,7.32979,0.0607066,7.61188,0.00943592L7.71875,3.33024e-8L11.2813,3.33024e-8Z" fill="url(#master_svg0_21_4391)" fill-opacity="1"/>
    </g>
    <g>
      <path d="M19,13.5638296875Q19,13.7954696875,18.9886,14.0268296875Q18.9771,14.2582296875,18.9543,14.4887296875Q18.9314,14.7192296875,18.8972,14.9483296875Q18.863,15.1775296875,18.8175,15.4046296875Q18.772,15.6318296875,18.7153,15.8565296875Q18.6586,16.0812296875,18.5909,16.3029296875Q18.5232,16.5246296875,18.4447,16.742729687500002Q18.3661,16.960829687500002,18.2769,17.1748296875Q18.1876,17.3888296875,18.0879,17.5982296875Q17.9882,17.8076296875,17.8782,18.0118296875Q17.7683,18.2161296875,17.6484,18.4148296875Q17.5285,18.613529687499998,17.399,18.8061296875Q17.2694,18.9987296875,17.1305,19.1848296875Q16.9915,19.3708296875,16.8436,19.5499296875Q16.6956,19.7289296875,16.539,19.9006296875Q16.3824,20.0722296875,16.2175,20.2360296875Q16.0526,20.3998296875,15.8798,20.5553296875Q15.707,20.7109296875,15.5267,20.8578296875Q15.3465,21.0048296875,15.1591,21.1428296875Q14.9718,21.2808296875,14.7779,21.4095296875Q14.584,21.5381296875,14.384,21.6572296875Q14.1839,21.7763296875,13.9783,21.8855296875Q13.7726,21.9947296875,13.5618,22.0937296875Q13.3509,22.1928296875,13.1355,22.2814296875Q12.92,22.3701296875,12.7005,22.4481296875Q12.4809,22.5261296875,12.2577,22.5934296875Q12.0345,22.6606296875,11.8083,22.7169296875Q11.5821,22.7732296875,11.3534,22.8184296875Q11.1246,22.8636296875,10.8939,22.8976296875Q10.6633,22.9316296875,10.4312,22.9543296875Q10.1991,22.9770296875,9.96614,22.9883296875Q9.73321,22.9997296875,9.5,22.9997296875Q9.26679,22.9997296875,9.03386,22.9883296875Q8.80093,22.9770296875,8.56884,22.9543296875Q8.33675,22.9316296875,8.10606,22.8976296875Q7.87537,22.8636296875,7.64664,22.8184296875Q7.41791,22.7732296875,7.19169,22.7169296875Q6.96547,22.6606296875,6.7423,22.5934296875Q6.51913,22.5261296875,6.29955,22.4481296875Q6.07997,22.3701296875,5.86451,22.2814296875Q5.64905,22.1928296875,5.43823,22.0937296875Q5.22741,21.9947296875,5.02173,21.8855296875Q4.81606,21.7763296875,4.61602,21.6572296875Q4.41599,21.5381296875,4.22208,21.4095296875Q4.02817,21.2808296875,3.84086,21.1428296875Q3.65354,21.0048296875,3.47326,20.8578296875Q3.29299,20.7109296875,3.12019,20.5553296875Q2.94739,20.3998296875,2.78249,20.2360296875Q2.61758,20.0722296875,2.46096,19.9006296875Q2.30435,19.7289296875,2.1564,19.5499296875Q2.00845,19.3708296875,1.86953,19.1848296875Q1.7306,18.9987296875,1.60104,18.8061296875Q1.47147,18.613529687499998,1.35158,18.4148296875Q1.23168,18.2161296875,1.12175,18.0118296875Q1.01181,17.8076296875,0.912102,17.5982296875Q0.812391,17.3888296875,0.723144,17.1748296875Q0.633898,16.960829687500002,0.555331,16.742729687500002Q0.476765,16.5246296875,0.409067,16.3029296875Q0.341369,16.0812296875,0.284703,15.8565296875Q0.228037,15.6318296875,0.18254,15.4046296875Q0.137042,15.1775296875,0.102823,14.9483296875Q0.0686039,14.7192296875,0.0457451,14.4887296875Q0.0228863,14.2582296875,0.0114432,14.0268296875Q0,13.7954696875,0,13.5638296875Q0,13.3321896875,0.0114432,13.1008296875Q0.0228863,12.8694696875,0.0457451,12.6389496875Q0.0686039,12.4084196875,0.102823,12.1792896875Q0.137042,11.950159687500001,0.18254,11.722969687500001Q0.228037,11.4957896875,0.284703,11.2710896875Q0.341369,11.0463896875,0.409067,10.8247296875Q0.476765,10.6030696875,0.555331,10.3849696875Q0.633898,10.1668696875,0.723144,9.9528596875Q0.812391,9.7388596875,0.912102,9.529459687500001Q1.01181,9.320059687499999,1.12175,9.1157796875Q1.23168,8.9114896875,1.35158,8.7128096875Q1.47147,8.5141196875,1.60104,8.3215196875Q1.7306,8.1289196875,1.86953,7.9428696875Q2.00845,7.7568196875,2.1564,7.5777596875Q2.30435,7.398699687500001,2.46096,7.2270696875Q2.61758,7.0554296875,2.78249,6.8916396875Q2.94739,6.7278496875,3.12019,6.5722896875Q3.29299,6.4167296875,3.47326,6.2697796875Q3.65354,6.1228296874999995,3.84086,5.9848396875Q4.02817,5.8468596875,4.22208,5.7181696875Q4.41599,5.5894696875,4.61602,5.4703896875Q4.81606,5.3512996875,5.02173,5.2421096875Q5.22741,5.1329196875,5.43823,5.0338766875Q5.64905,4.9348386875,5.86451,4.8461946875Q6.07997,4.7575506875,6.29955,4.6795136875Q6.51913,4.6014776875,6.7423,4.5342366875Q6.96547,4.4669946875,7.19169,4.4107116875Q7.41791,4.3544276875,7.64664,4.3092376875Q7.87537,4.2640476875,8.10606,4.2300586875Q8.33675,4.1960705875,8.56884,4.1733660875Q8.80093,4.1506615875,9.03386,4.1392956875Q9.26679,4.1279296875,9.5,4.1279296875Q9.73321,4.1279296875,9.96614,4.1392956875Q10.1991,4.1506615875,10.4312,4.1733660875Q10.6633,4.1960705875,10.8939,4.2300586875Q11.1246,4.2640476875,11.3534,4.3092376875Q11.5821,4.3544276875,11.8083,4.4107116875Q12.0345,4.4669946875,12.2577,4.5342366875Q12.4809,4.6014776875,12.7005,4.6795136875Q12.92,4.7575506875,13.1355,4.8461946875Q13.3509,4.9348386875,13.5618,5.0338766875Q13.7726,5.1329196875,13.9783,5.2421096875Q14.1839,5.3512996875,14.384,5.4703896875Q14.584,5.5894696875,14.7779,5.7181696875Q14.9718,5.8468596875,15.1591,5.9848396875Q15.3465,6.1228296874999995,15.5267,6.2697796875Q15.707,6.4167296875,15.8798,6.5722896875Q16.0526,6.7278496875,16.2175,6.8916396875Q16.3824,7.0554296875,16.539,7.2270696875Q16.6956,7.398699687500001,16.8436,7.5777596875Q16.9915,7.7568196875,17.1305,7.9428696875Q17.2694,8.1289196875,17.399,8.3215196875Q17.5285,8.5141196875,17.6484,8.7128096875Q17.7683,8.9114896875,17.8783,9.1157796875Q17.9882,9.320059687499999,18.0879,9.529459687500001Q18.1876,9.7388596875,18.2769,9.9528596875Q18.3661,10.1668696875,18.4447,10.3849696875Q18.5232,10.6030696875,18.5909,10.8247296875Q18.6586,11.0463896875,18.7153,11.2710896875Q18.772,11.4957896875,18.8175,11.722969687500001Q18.863,11.950159687500001,18.8972,12.1792896875Q18.9314,12.4084196875,18.9543,12.6389496875Q18.9771,12.8694696875,18.9886,13.1008296875Q19,13.3321896875,19,13.5638296875Z" fill="url(#master_svg1_21_4391)" fill-opacity="1"/>
    </g>
    <g>
      <path d="M7.456298046875,10.77218515625L4.081428046875,11.25931515625L3.981678046875,11.28290515625C3.558168746875,11.42111515625,3.433327046875,11.95630515625,3.752490046875,12.26541515625L6.195178046875,14.62911515625L5.619238046875,17.97058515625L5.609738046875,18.06498515625C5.605588046875,18.51118515625,6.082648046875001,18.800185156250002,6.480178046875,18.59218515625L9.499988046875,17.01403515625L12.519798046875,18.59218515625L12.607678046875,18.629885156249998C13.034008046875,18.77138515625,13.457838046875,18.40928515625,13.380738046875,17.96938515625L12.803618046875,14.62911515625L15.247498046875,12.26541515625L15.315198046875,12.18875515625C15.576998046875,11.82937515625,15.360598046875,11.32238515625,14.918598046875,11.25931515625L11.542488046875,10.77218515625L10.031988046875,7.73265015625C9.931788046874999,7.53183115625,9.725638046875,7.40478515625,9.499988046875,7.40478515625C9.274338046875,7.40478515625,9.068188046875001,7.53183115625,8.967988046875,7.73265015625L7.456298046875,10.77218515625ZM9.499988046875,7.99449515625L11.148238046875,11.31121515625L14.833098046875,11.84198515625L12.167118046875,14.42505515625L12.796488046875,18.06968515625L9.499988046875,16.348805156250002L6.203488046875,18.07088515625L6.832868046874999,14.42505515625L4.166927046875,11.84198515625L7.851738046875,11.31121515625L9.499988046875,7.99449515625Z" fill="#FFFFFF" fill-opacity="1"/>
    </g>
  </g>
</svg>